<svg id="Camada_1" data-name="Camada 1" xmlns="http://www.w3.org/2000/svg" viewBox="0 0 140.13 64.73"><defs><style>.cls-1{fill:#555c60;}.cls-2{fill:#72be53;}.cls-3{fill:#47c3e1;}.cls-4{fill:#fbaf1b;}.cls-5{fill:#218acb;}</style></defs><title>logo_sprinlkr_ancorado</title><path class="cls-1" d="M.2,52.26l.27-.32a.71.71,0,0,1,1.1,0,10.17,10.17,0,0,0,6.51,2.34c2.8,0,5.27-1.47,5.27-4.31C13.35,44.1.75,45.75.75,38.28c0-4.08,3.44-6.19,7.33-6.19a9.73,9.73,0,0,1,6.23,2,.7.7,0,0,1,.18,1.05l-.28.37a.69.69,0,0,1-1.1.09A8.44,8.44,0,0,0,7.94,34c-2.61,0-5.18,1.19-5.18,4.17,0,6,12.61,4.17,12.61,11.78,0,3.67-3.12,6.19-7.33,6.19a11.28,11.28,0,0,1-7.75-2.8A.7.7,0,0,1,.2,52.26" transform="translate(0 0)"/><path class="cls-1" d="M21.28,33.42a.7.7,0,0,1,.78-.78h.37a.7.7,0,0,1,.78.78v2a11.7,11.7,0,0,1-.14,1.83h.09a8.59,8.59,0,0,1,8.25-5.13c6.14,0,9.9,4.9,9.9,12,0,7.29-4.26,12-10.18,12a8.76,8.76,0,0,1-8-5.18H23a10.23,10.23,0,0,1,.18,2v11a.7.7,0,0,1-.78.78h-.37a.7.7,0,0,1-.78-.78Zm9.85,20.81c4.49,0,8.16-3.71,8.16-10.13,0-6.19-3.3-10.13-8-10.13-4.22,0-8.16,3-8.16,10.18,0,5.09,2.84,10.08,8,10.08" transform="translate(0 0)"/><path class="cls-1" d="M47.45,33.42a.7.7,0,0,1,.78-.78h.37a.7.7,0,0,1,.78.78V37a9.61,9.61,0,0,1-.18,1.88h.09c1.15-3.53,3.85-6.37,7.7-6.37.64,0,1,.27,1,.78v.41c0,.5-.41.78-1,.78-5.13,0-7.56,6.1-7.56,11.18v9.12a.7.7,0,0,1-.78.78h-.37a.7.7,0,0,1-.78-.78Z" transform="translate(0 0)"/><path class="cls-1" d="M62.06,33.43a.7.7,0,0,1,.8-.8h.46a.71.71,0,0,1,.8.8V54.81a.71.71,0,0,1-.8.8h-.46a.7.7,0,0,1-.8-.8Z" transform="translate(0 0)"/><path class="cls-1" d="M71.32,33.42a.7.7,0,0,1,.78-.78h.37a.7.7,0,0,1,.78.78v3.25a9.6,9.6,0,0,1-.18,1.88h.09a10.56,10.56,0,0,1,9.72-6.46c6,0,7.56,3.53,7.56,8.94V54.78a.7.7,0,0,1-.78.78h-.37a.7.7,0,0,1-.78-.78V41.71c0-4-.5-7.75-5.64-7.75s-9.63,4.31-9.63,10.18V54.78a.7.7,0,0,1-.78.78H72.1a.7.7,0,0,1-.78-.78Z" transform="translate(0 0)"/><path class="cls-1" d="M97.82,24.25a.7.7,0,0,1,.78-.78H99a.7.7,0,0,1,.78.78V41.67h4.08l7.06-8.57a1.15,1.15,0,0,1,1-.46h.69c.64,0,.87.46.41,1l-7.47,8.89v.09l8.43,12c.37.55.14,1-.5,1h-.69a1,1,0,0,1-.92-.5l-8-11.6H99.74V54.78a.7.7,0,0,1-.78.78H98.6a.7.7,0,0,1-.78-.78Z" transform="translate(0 0)"/><path class="cls-1" d="M119.18,24.25a.7.7,0,0,1,.78-.78h.37a.7.7,0,0,1,.78.78v26c0,3.21,1.56,3.48,2.66,3.62.41,0,.73.18.73.73v.27c0,.5-.18.82-.83.82-1.33,0-4.49-.5-4.49-4.81Z" transform="translate(0 0)"/><path class="cls-1" d="M129.63,33.42a.7.7,0,0,1,.78-.78h.37a.7.7,0,0,1,.78.78V37a9.61,9.61,0,0,1-.18,1.88h.09c1.15-3.53,3.85-6.37,7.7-6.37.64,0,1,.27,1,.78v.41c0,.5-.41.78-1,.78-5.13,0-7.56,6.1-7.56,11.18v9.12a.7.7,0,0,1-.78.78h-.37a.7.7,0,0,1-.78-.78Z" transform="translate(0 0)"/><path class="cls-2" d="M48.8,4.64a2.94,2.94,0,0,1,3.12-2.77,3.13,3.13,0,0,1,1.91.71A17.13,17.13,0,0,1,59.27,17c0,.25-.32.24-.4,0-1.08-3.67-4.65-7.89-7.81-9.15A3.14,3.14,0,0,1,48.8,4.64" transform="translate(0 0)"/><path class="cls-3" d="M76.16,4.34A4.48,4.48,0,0,0,71.35,0c-5.42.12-12.71,14.07-8.54,26.74,0,.26.3.21.32-.05C63.71,17.87,69,11,73.76,8.29a4.11,4.11,0,0,0,2.4-4" transform="translate(0 0)"/><path class="cls-4" d="M46.43,17.11a2.82,2.82,0,0,0,2.95,2.63,16,16,0,0,1,9.24,3.35c.19.16.22.1.1-.32-.92-3.22-5.85-8.62-9.43-8.62a2.81,2.81,0,0,0-2.86,3" transform="translate(0 0)"/><path class="cls-5" d="M79.66,17.11a2.82,2.82,0,0,1-2.95,2.63,16,16,0,0,0-9.24,3.35c-.19.16-.22.1-.1-.32.92-3.22,5.85-8.62,9.43-8.62a2.81,2.81,0,0,1,2.86,3" transform="translate(0 0)"/></svg>